<?xml version="1.0" encoding="UTF-8"?>
<svg xmlns="http://www.w3.org/2000/svg" width="100%" height="100%" viewBox="0 0 1400 600" preserveAspectRatio="xMidYMid slice"><style> path[class^="c"] { stroke-width: 2px; vector-effect: non-scaling-stroke; } .c0 { stroke:var(--wp--preset--color--sky, #d4e2ef); } .c1 { stroke:var(--wp--preset--color--gold, #c38843); } .c2 { stroke:var(--wp--preset--color--blue, #20599e); } .c3 { stroke:var(--wp--preset--color--navy, #000650); } .s1 { stroke-dasharray: 2; } .s2 { stroke-dasharray: 4; } .s3 { stroke-dasharray: 8; } </style><path class="c1 s0" d="M0 20h56"/><path class="c0 s1" d="M56 20h56"/><path class="c2 s3" d="M112 20h56"/><path class="c1 s0" d="M168 20h56"/><path class="c1 s2" d="M224 20h56"/><path class="c2 s3" d="M280 20h56"/><path class="c0 s0" d="M336 20h56"/><path class="c2 s2" d="M392 20h56"/><path class="c3 s3" d="M448 20h56"/><path class="c1 s1" d="M504 20h56"/><path class="c1 s3" d="M560 20h56"/><path class="c0 s2" d="M616 20h56"/><path class="c1 s0" d="M672 20h56"/><path class="c0 s1" d="M728 20h56"/><path class="c0 s3" d="M784 20h56"/><path class="c0 s0" d="M840 20h56"/><path class="c1 s3" d="M896 20h56"/><path class="c0 s3" d="M952 20h56"/><path class="c2 s2" d="M1008 20h56"/><path class="c3 s3" d="M1064 20h56"/><path class="c1 s3" d="M1120 20h56"/><path class="c2 s1" d="M1176 20h56"/><path class="c3 s1" d="M1232 20h56"/><path class="c3 s3" d="M1288 20h56"/><path class="c1 s2" d="M1344 20h56"/><path class="c3 s1" d="M0 40h56"/><path class="c1 s1" d="M56 40h56"/><path class="c1 s2" d="M112 40h56"/><path class="c0 s0" d="M168 40h56"/><path class="c1 s1" d="M224 40h56M280 40h56"/><path class="c3 s2" d="M336 40h56"/><path class="c3 s3" d="M392 40h56"/><path class="c0 s2" d="M448 40h56M504 40h56M560 40h56"/><path class="c3 s0" d="M616 40h56"/><path class="c1 s2" d="M672 40h56"/><path class="c2 s0" d="M728 40h56"/><path class="c3 s3" d="M784 40h56"/><path class="c1 s2" d="M840 40h56"/><path class="c0 s1" d="M896 40h56"/><path class="c0 s3" d="M952 40h56"/><path class="c3 s2" d="M1008 40h56"/><path class="c2 s2" d="M1064 40h56"/><path class="c0 s0" d="M1120 40h56"/><path class="c2 s1" d="M1176 40h56"/><path class="c3 s3" d="M1232 40h56"/><path class="c3 s0" d="M1288 40h56"/><path class="c3 s2" d="M1344 40h56"/><path class="c3 s1" d="M0 60h56"/><path class="c2 s0" d="M56 60h56"/><path class="c0 s2" d="M112 60h56"/><path class="c3 s3" d="M168 60h56"/><path class="c2 s2" d="M224 60h56"/><path class="c2 s0" d="M280 60h56"/><path class="c1 s2" d="M336 60h56"/><path class="c1 s0" d="M392 60h56"/><path class="c2 s2" d="M448 60h56"/><path class="c1 s3" d="M504 60h56"/><path class="c0 s3" d="M560 60h56"/><path class="c2 s2" d="M616 60h56"/><path class="c2 s3" d="M672 60h56"/><path class="c1 s1" d="M728 60h56"/><path class="c0 s0" d="M784 60h56"/><path class="c3 s1" d="M840 60h56"/><path class="c1 s3" d="M896 60h56"/><path class="c3 s3" d="M952 60h56"/><path class="c3 s2" d="M1008 60h56"/><path class="c1 s1" d="M1064 60h56"/><path class="c1 s3" d="M1120 60h56"/><path class="c2 s2" d="M1176 60h56"/><path class="c1 s1" d="M1232 60h56"/><path class="c1 s3" d="M1288 60h56"/><path class="c3 s0" d="M1344 60h56"/><path class="c0 s2" d="M0 80h56"/><path class="c3 s3" d="M56 80h56M112 80h56"/><path class="c3 s1" d="M168 80h56"/><path class="c3 s0" d="M224 80h56"/><path class="c0 s2" d="M280 80h56"/><path class="c3 s0" d="M336 80h56"/><path class="c1 s1" d="M392 80h56"/><path class="c3 s0" d="M448 80h56"/><path class="c2 s0" d="M504 80h56"/><path class="c1 s0" d="M560 80h56"/><path class="c1 s1" d="M616 80h56M672 80h56"/><path class="c0 s2" d="M728 80h56"/><path class="c1 s1" d="M784 80h56"/><path class="c1 s3" d="M840 80h56"/><path class="c3 s1" d="M896 80h56"/><path class="c1 s1" d="M952 80h56"/><path class="c2 s1" d="M1008 80h56"/><path class="c3 s3" d="M1064 80h56"/><path class="c0 s1" d="M1120 80h56"/><path class="c3 s2" d="M1176 80h56"/><path class="c0 s2" d="M1232 80h56"/><path class="c1 s3" d="M1288 80h56"/><path class="c2 s3" d="M1344 80h56"/><path class="c0 s0" d="M0 100h56"/><path class="c3 s2" d="M56 100h56"/><path class="c3 s1" d="M112 100h56"/><path class="c0 s3" d="M168 100h56"/><path class="c1 s3" d="M224 100h56"/><path class="c2 s2" d="M280 100h56"/><path class="c3 s0" d="M336 100h56"/><path class="c2 s1" d="M392 100h56"/><path class="c1 s2" d="M448 100h56"/><path class="c0 s0" d="M504 100h56"/><path class="c1 s0" d="M560 100h56"/><path class="c3 s2" d="M616 100h56"/><path class="c3 s0" d="M672 100h56"/><path class="c0 s1" d="M728 100h56"/><path class="c0 s0" d="M784 100h56"/><path class="c1 s3" d="M840 100h56"/><path class="c0 s2" d="M896 100h56"/><path class="c2 s3" d="M952 100h56"/><path class="c3 s2" d="M1008 100h56"/><path class="c2 s3" d="M1064 100h56"/><path class="c1 s3" d="M1120 100h56"/><path class="c2 s2" d="M1176 100h56"/><path class="c0 s3" d="M1232 100h56"/><path class="c3 s0" d="M1288 100h56"/><path class="c1 s1" d="M1344 100h56"/><path class="c1 s3" d="M0 120h56"/><path class="c2 s2" d="M56 120h56"/><path class="c2 s3" d="M112 120h56"/><path class="c0 s0" d="M168 120h56"/><path class="c1 s2" d="M224 120h56M280 120h56"/><path class="c2 s2" d="M336 120h56"/><path class="c2 s0" d="M392 120h56"/><path class="c3 s1" d="M448 120h56"/><path class="c1 s1" d="M504 120h56"/><path class="c1 s3" d="M560 120h56"/><path class="c0 s2" d="M616 120h56"/><path class="c0 s3" d="M672 120h56"/><path class="c0 s0" d="M728 120h56"/><path class="c2 s2" d="M784 120h56"/><path class="c1 s1" d="M840 120h56"/><path class="c3 s3" d="M896 120h56"/><path class="c0 s1" d="M952 120h56"/><path class="c2 s2" d="M1008 120h56"/><path class="c3 s2" d="M1064 120h56M1120 120h56"/><path class="c2 s2" d="M1176 120h56"/><path class="c0 s3" d="M1232 120h56"/><path class="c0 s2" d="M1288 120h56"/><path class="c2 s0" d="M1344 120h56"/><path class="c3 s1" d="M0 140h56"/><path class="c1 s2" d="M56 140h56"/><path class="c3 s3" d="M112 140h56"/><path class="c2 s2" d="M168 140h56"/><path class="c2 s1" d="M224 140h56"/><path class="c0 s2" d="M280 140h56"/><path class="c0 s3" d="M336 140h56"/><path class="c0 s0" d="M392 140h56"/><path class="c1 s1" d="M448 140h56"/><path class="c0 s1" d="M504 140h56"/><path class="c2 s3" d="M560 140h56"/><path class="c3 s1" d="M616 140h56"/><path class="c3 s3" d="M672 140h56"/><path class="c0 s0" d="M728 140h56"/><path class="c3 s2" d="M784 140h56"/><path class="c2 s2" d="M840 140h56"/><path class="c2 s1" d="M896 140h56"/><path class="c3 s0" d="M952 140h56"/><path class="c1 s0" d="M1008 140h56"/><path class="c1 s3" d="M1064 140h56M1120 140h56"/><path class="c2 s0" d="M1176 140h56"/><path class="c1 s3" d="M1232 140h56"/><path class="c2 s1" d="M1288 140h56"/><path class="c0 s1" d="M1344 140h56"/><path class="c2 s3" d="M0 160h56"/><path class="c3 s3" d="M56 160h56"/><path class="c2 s3" d="M112 160h56"/><path class="c0 s2" d="M168 160h56"/><path class="c1 s2" d="M224 160h56M280 160h56"/><path class="c3 s1" d="M336 160h56"/><path class="c0 s0" d="M392 160h56"/><path class="c3 s3" d="M448 160h56M504 160h56M560 160h56"/><path class="c2 s3" d="M616 160h56M672 160h56"/><path class="c0 s3" d="M728 160h56"/><path class="c0 s1" d="M784 160h56"/><path class="c2 s2" d="M840 160h56"/><path class="c3 s1" d="M896 160h56"/><path class="c0 s2" d="M952 160h56"/><path class="c2 s3" d="M1008 160h56"/><path class="c0 s3" d="M1064 160h56"/><path class="c2 s1" d="M1120 160h56"/><path class="c0 s2" d="M1176 160h56"/><path class="c3 s3" d="M1232 160h56"/><path class="c2 s0" d="M1288 160h56"/><path class="c1 s1" d="M1344 160h56"/><path class="c0 s3" d="M0 180h56"/><path class="c3 s3" d="M56 180h56M112 180h56"/><path class="c1 s1" d="M168 180h56"/><path class="c3 s1" d="M224 180h56"/><path class="c2 s2" d="M280 180h56"/><path class="c1 s2" d="M336 180h56"/><path class="c1 s1" d="M392 180h56"/><path class="c0 s2" d="M448 180h56"/><path class="c2 s3" d="M504 180h56"/><path class="c0 s2" d="M560 180h56"/><path class="c2 s1" d="M616 180h56"/><path class="c3 s3" d="M672 180h56"/><path class="c0 s1" d="M728 180h56"/><path class="c3 s1" d="M784 180h56M840 180h56M896 180h56"/><path class="c3 s2" d="M952 180h56M1008 180h56"/><path class="c1 s0" d="M1064 180h56"/><path class="c3 s0" d="M1120 180h56"/><path class="c2 s3" d="M1176 180h56M1232 180h56"/><path class="c2 s0" d="M1288 180h56"/><path class="c1 s3" d="M1344 180h56"/><path class="c0 s3" d="M0 200h56"/><path class="c2 s3" d="M56 200h56"/><path class="c3 s3" d="M112 200h56"/><path class="c3 s0" d="M168 200h56"/><path class="c1 s1" d="M224 200h56"/><path class="c1 s2" d="M280 200h56"/><path class="c0 s0" d="M336 200h56"/><path class="c2 s0" d="M392 200h56"/><path class="c0 s1" d="M448 200h56"/><path class="c3 s0" d="M504 200h56"/><path class="c2 s3" d="M560 200h56"/><path class="c0 s0" d="M616 200h56"/><path class="c3 s2" d="M672 200h56"/><path class="c1 s0" d="M728 200h56"/><path class="c0 s3" d="M784 200h56"/><path class="c1 s2" d="M840 200h56"/><path class="c3 s1" d="M896 200h56"/><path class="c1 s1" d="M952 200h56"/><path class="c1 s2" d="M1008 200h56"/><path class="c2 s0" d="M1064 200h56"/><path class="c0 s2" d="M1120 200h56"/><path class="c0 s3" d="M1176 200h56M1232 200h56"/><path class="c2 s3" d="M1288 200h56"/><path class="c0 s2" d="M1344 200h56"/><path class="c1 s2" d="M0 220h56"/><path class="c0 s0" d="M56 220h56"/><path class="c0 s1" d="M112 220h56"/><path class="c2 s1" d="M168 220h56"/><path class="c2 s2" d="M224 220h56"/><path class="c2 s1" d="M280 220h56"/><path class="c3 s1" d="M336 220h56"/><path class="c1 s3" d="M392 220h56"/><path class="c2 s0" d="M448 220h56M504 220h56"/><path class="c3 s2" d="M560 220h56"/><path class="c3 s3" d="M616 220h56"/><path class="c1 s3" d="M672 220h56"/><path class="c3 s2" d="M728 220h56"/><path class="c1 s1" d="M784 220h56M840 220h56"/><path class="c3 s3" d="M896 220h56"/><path class="c3 s0" d="M952 220h56"/><path class="c2 s2" d="M1008 220h56"/><path class="c3 s2" d="M1064 220h56"/><path class="c2 s2" d="M1120 220h56"/><path class="c3 s2" d="M1176 220h56M1232 220h56"/><path class="c2 s2" d="M1288 220h56"/><path class="c0 s0" d="M1344 220h56"/><path class="c1 s2" d="M0 240h56"/><path class="c2 s2" d="M56 240h56M112 240h56"/><path class="c3 s3" d="M168 240h56"/><path class="c1 s1" d="M224 240h56M280 240h56"/><path class="c0 s1" d="M336 240h56"/><path class="c3 s1" d="M392 240h56"/><path class="c1 s3" d="M448 240h56"/><path class="c2 s3" d="M504 240h56"/><path class="c0 s3" d="M560 240h56"/><path class="c3 s3" d="M616 240h56"/><path class="c3 s2" d="M672 240h56M728 240h56"/><path class="c2 s0" d="M784 240h56"/><path class="c1 s0" d="M840 240h56"/><path class="c3 s1" d="M896 240h56"/><path class="c0 s1" d="M952 240h56"/><path class="c1 s2" d="M1008 240h56"/><path class="c1 s3" d="M1064 240h56"/><path class="c2 s1" d="M1120 240h56"/><path class="c3 s3" d="M1176 240h56"/><path class="c2 s1" d="M1232 240h56"/><path class="c0 s3" d="M1288 240h56"/><path class="c3 s3" d="M1344 240h56"/><path class="c3 s2" d="M0 260h56"/><path class="c2 s3" d="M56 260h56"/><path class="c3 s3" d="M112 260h56"/><path class="c1 s1" d="M168 260h56"/><path class="c0 s0" d="M224 260h56"/><path class="c2 s0" d="M280 260h56"/><path class="c3 s2" d="M336 260h56"/><path class="c0 s3" d="M392 260h56"/><path class="c1 s2" d="M448 260h56"/><path class="c1 s0" d="M504 260h56"/><path class="c0 s0" d="M560 260h56"/><path class="c2 s1" d="M616 260h56"/><path class="c2 s3" d="M672 260h56"/><path class="c0 s3" d="M728 260h56"/><path class="c0 s1" d="M784 260h56"/><path class="c3 s2" d="M840 260h56"/><path class="c2 s2" d="M896 260h56"/><path class="c0 s2" d="M952 260h56"/><path class="c2 s0" d="M1008 260h56"/><path class="c2 s3" d="M1064 260h56"/><path class="c3 s3" d="M1120 260h56"/><path class="c1 s3" d="M1176 260h56"/><path class="c3 s0" d="M1232 260h56"/><path class="c0 s2" d="M1288 260h56"/><path class="c1 s1" d="M1344 260h56M0 280h56"/><path class="c0 s1" d="M56 280h56"/><path class="c2 s1" d="M112 280h56"/><path class="c1 s1" d="M168 280h56"/><path class="c3 s3" d="M224 280h56"/><path class="c1 s0" d="M280 280h56"/><path class="c1 s3" d="M336 280h56"/><path class="c2 s1" d="M392 280h56"/><path class="c2 s2" d="M448 280h56"/><path class="c3 s2" d="M504 280h56"/><path class="c3 s3" d="M560 280h56"/><path class="c3 s1" d="M616 280h56"/><path class="c1 s1" d="M672 280h56"/><path class="c1 s3" d="M728 280h56"/><path class="c0 s0" d="M784 280h56"/><path class="c0 s2" d="M840 280h56"/><path class="c0 s3" d="M896 280h56"/><path class="c2 s1" d="M952 280h56"/><path class="c1 s2" d="M1008 280h56"/><path class="c1 s3" d="M1064 280h56"/><path class="c0 s3" d="M1120 280h56"/><path class="c3 s0" d="M1176 280h56"/><path class="c2 s2" d="M1232 280h56"/><path class="c0 s2" d="M1288 280h56"/><path class="c2 s2" d="M1344 280h56"/><path class="c0 s2" d="M0 300h56"/><path class="c3 s0" d="M56 300h56"/><path class="c0 s1" d="M112 300h56"/><path class="c3 s3" d="M168 300h56"/><path class="c3 s0" d="M224 300h56"/><path class="c3 s3" d="M280 300h56"/><path class="c1 s1" d="M336 300h56"/><path class="c2 s3" d="M392 300h56"/><path class="c1 s3" d="M448 300h56"/><path class="c2 s3" d="M504 300h56"/><path class="c2 s0" d="M560 300h56"/><path class="c0 s1" d="M616 300h56"/><path class="c2 s2" d="M672 300h56"/><path class="c2 s1" d="M728 300h56"/><path class="c3 s1" d="M784 300h56M840 300h56"/><path class="c2 s2" d="M896 300h56"/><path class="c3 s3" d="M952 300h56"/><path class="c1 s1" d="M1008 300h56"/><path class="c1 s0" d="M1064 300h56"/><path class="c0 s0" d="M1120 300h56"/><path class="c3 s2" d="M1176 300h56"/><path class="c1 s0" d="M1232 300h56"/><path class="c2 s2" d="M1288 300h56"/><path class="c0 s1" d="M1344 300h56"/><path class="c1 s1" d="M0 320h56"/><path class="c2 s3" d="M56 320h56"/><path class="c0 s0" d="M112 320h56"/><path class="c3 s1" d="M168 320h56"/><path class="c1 s2" d="M224 320h56"/><path class="c1 s1" d="M280 320h56"/><path class="c3 s2" d="M336 320h56"/><path class="c2 s2" d="M392 320h56"/><path class="c2 s3" d="M448 320h56"/><path class="c0 s0" d="M504 320h56"/><path class="c1 s3" d="M560 320h56"/><path class="c1 s2" d="M616 320h56"/><path class="c2 s1" d="M672 320h56"/><path class="c2 s0" d="M728 320h56"/><path class="c3 s1" d="M784 320h56"/><path class="c0 s2" d="M840 320h56M896 320h56"/><path class="c3 s1" d="M952 320h56"/><path class="c0 s2" d="M1008 320h56"/><path class="c0 s0" d="M1064 320h56"/><path class="c2 s0" d="M1120 320h56"/><path class="c3 s1" d="M1176 320h56"/><path class="c2 s0" d="M1232 320h56"/><path class="c3 s2" d="M1288 320h56"/><path class="c2 s3" d="M1344 320h56"/><path class="c1 s0" d="M0 340h56"/><path class="c1 s3" d="M56 340h56"/><path class="c2 s0" d="M112 340h56"/><path class="c1 s0" d="M168 340h56"/><path class="c1 s2" d="M224 340h56"/><path class="c0 s2" d="M280 340h56"/><path class="c0 s1" d="M336 340h56"/><path class="c0 s2" d="M392 340h56"/><path class="c2 s3" d="M448 340h56"/><path class="c3 s0" d="M504 340h56"/><path class="c2 s1" d="M560 340h56M616 340h56"/><path class="c2 s0" d="M672 340h56"/><path class="c0 s0" d="M728 340h56"/><path class="c2 s1" d="M784 340h56"/><path class="c1 s1" d="M840 340h56"/><path class="c2 s0" d="M896 340h56"/><path class="c0 s2" d="M952 340h56"/><path class="c0 s0" d="M1008 340h56M1064 340h56"/><path class="c2 s2" d="M1120 340h56"/><path class="c1 s1" d="M1176 340h56"/><path class="c3 s2" d="M1232 340h56M1288 340h56"/><path class="c3 s1" d="M1344 340h56"/><path class="c1 s1" d="M0 360h56"/><path class="c2 s1" d="M56 360h56"/><path class="c2 s2" d="M112 360h56"/><path class="c0 s1" d="M168 360h56"/><path class="c3 s0" d="M224 360h56"/><path class="c1 s1" d="M280 360h56"/><path class="c0 s0" d="M336 360h56"/><path class="c1 s2" d="M392 360h56"/><path class="c3 s2" d="M448 360h56"/><path class="c0 s2" d="M504 360h56"/><path class="c3 s1" d="M560 360h56"/><path class="c3 s0" d="M616 360h56"/><path class="c1 s3" d="M672 360h56"/><path class="c2 s0" d="M728 360h56"/><path class="c1 s3" d="M784 360h56"/><path class="c2 s3" d="M840 360h56"/><path class="c1 s2" d="M896 360h56"/><path class="c2 s1" d="M952 360h56"/><path class="c2 s0" d="M1008 360h56"/><path class="c1 s0" d="M1064 360h56"/><path class="c3 s2" d="M1120 360h56"/><path class="c0 s1" d="M1176 360h56"/><path class="c1 s0" d="M1232 360h56"/><path class="c2 s1" d="M1288 360h56"/><path class="c1 s2" d="M1344 360h56"/><path class="c3 s0" d="M0 380h56"/><path class="c0 s0" d="M56 380h56"/><path class="c1 s1" d="M112 380h56"/><path class="c1 s0" d="M168 380h56"/><path class="c1 s2" d="M224 380h56"/><path class="c2 s3" d="M280 380h56"/><path class="c1 s0" d="M336 380h56"/><path class="c1 s3" d="M392 380h56"/><path class="c0 s3" d="M448 380h56M504 380h56"/><path class="c1 s1" d="M560 380h56"/><path class="c0 s1" d="M616 380h56M672 380h56"/><path class="c1 s3" d="M728 380h56"/><path class="c2 s1" d="M784 380h56"/><path class="c1 s3" d="M840 380h56M896 380h56"/><path class="c3 s1" d="M952 380h56"/><path class="c0 s0" d="M1008 380h56"/><path class="c2 s1" d="M1064 380h56"/><path class="c0 s2" d="M1120 380h56"/><path class="c3 s0" d="M1176 380h56"/><path class="c0 s1" d="M1232 380h56"/><path class="c2 s1" d="M1288 380h56"/><path class="c2 s2" d="M1344 380h56"/><path class="c2 s3" d="M0 400h56"/><path class="c0 s2" d="M56 400h56"/><path class="c0 s0" d="M112 400h56"/><path class="c3 s2" d="M168 400h56"/><path class="c0 s3" d="M224 400h56"/><path class="c3 s2" d="M280 400h56"/><path class="c1 s1" d="M336 400h56"/><path class="c2 s2" d="M392 400h56M448 400h56"/><path class="c0 s3" d="M504 400h56"/><path class="c1 s2" d="M560 400h56"/><path class="c2 s3" d="M616 400h56"/><path class="c3 s1" d="M672 400h56"/><path class="c1 s1" d="M728 400h56"/><path class="c2 s0" d="M784 400h56"/><path class="c0 s0" d="M840 400h56"/><path class="c1 s1" d="M896 400h56"/><path class="c0 s0" d="M952 400h56"/><path class="c1 s3" d="M1008 400h56"/><path class="c1 s1" d="M1064 400h56"/><path class="c0 s0" d="M1120 400h56"/><path class="c3 s1" d="M1176 400h56"/><path class="c2 s2" d="M1232 400h56M1288 400h56"/><path class="c0 s0" d="M1344 400h56"/><path class="c2 s2" d="M0 420h56"/><path class="c0 s1" d="M56 420h56"/><path class="c1 s3" d="M112 420h56"/><path class="c0 s2" d="M168 420h56"/><path class="c2 s2" d="M224 420h56"/><path class="c3 s1" d="M280 420h56"/><path class="c1 s1" d="M336 420h56"/><path class="c3 s2" d="M392 420h56"/><path class="c3 s3" d="M448 420h56"/><path class="c0 s2" d="M504 420h56"/><path class="c3 s0" d="M560 420h56"/><path class="c2 s2" d="M616 420h56M672 420h56M728 420h56"/><path class="c0 s1" d="M784 420h56"/><path class="c3 s0" d="M840 420h56"/><path class="c0 s2" d="M896 420h56"/><path class="c2 s0" d="M952 420h56"/><path class="c3 s0" d="M1008 420h56"/><path class="c3 s3" d="M1064 420h56"/><path class="c1 s1" d="M1120 420h56"/><path class="c0 s2" d="M1176 420h56M1232 420h56"/><path class="c2 s0" d="M1288 420h56"/><path class="c3 s2" d="M1344 420h56"/><path class="c2 s3" d="M0 440h56"/><path class="c0 s0" d="M56 440h56"/><path class="c3 s3" d="M112 440h56"/><path class="c0 s2" d="M168 440h56"/><path class="c3 s2" d="M224 440h56"/><path class="c0 s2" d="M280 440h56"/><path class="c1 s2" d="M336 440h56"/><path class="c0 s0" d="M392 440h56"/><path class="c1 s2" d="M448 440h56"/><path class="c0 s2" d="M504 440h56"/><path class="c1 s1" d="M560 440h56"/><path class="c0 s3" d="M616 440h56"/><path class="c0 s0" d="M672 440h56"/><path class="c0 s1" d="M728 440h56"/><path class="c3 s3" d="M784 440h56"/><path class="c0 s0" d="M840 440h56"/><path class="c2 s3" d="M896 440h56"/><path class="c1 s1" d="M952 440h56"/><path class="c1 s3" d="M1008 440h56"/><path class="c1 s0" d="M1064 440h56"/><path class="c0 s2" d="M1120 440h56"/><path class="c0 s3" d="M1176 440h56"/><path class="c1 s2" d="M1232 440h56"/><path class="c1 s0" d="M1288 440h56"/><path class="c0 s3" d="M1344 440h56"/><path class="c1 s1" d="M0 460h56"/><path class="c3 s2" d="M56 460h56"/><path class="c1 s0" d="M112 460h56M168 460h56"/><path class="c0 s3" d="M224 460h56"/><path class="c3 s0" d="M280 460h56"/><path class="c1 s3" d="M336 460h56"/><path class="c2 s0" d="M392 460h56"/><path class="c0 s1" d="M448 460h56"/><path class="c2 s3" d="M504 460h56"/><path class="c0 s0" d="M560 460h56"/><path class="c2 s2" d="M616 460h56"/><path class="c3 s1" d="M672 460h56"/><path class="c2 s3" d="M728 460h56"/><path class="c3 s2" d="M784 460h56"/><path class="c0 s3" d="M840 460h56"/><path class="c2 s1" d="M896 460h56"/><path class="c3 s2" d="M952 460h56M1008 460h56"/><path class="c2 s2" d="M1064 460h56"/><path class="c3 s2" d="M1120 460h56"/><path class="c0 s2" d="M1176 460h56"/><path class="c3 s0" d="M1232 460h56"/><path class="c3 s3" d="M1288 460h56"/><path class="c2 s3" d="M1344 460h56"/><path class="c1 s1" d="M0 480h56"/><path class="c0 s3" d="M56 480h56"/><path class="c3 s3" d="M112 480h56"/><path class="c0 s0" d="M168 480h56"/><path class="c0 s2" d="M224 480h56"/><path class="c3 s2" d="M280 480h56"/><path class="c1 s2" d="M336 480h56"/><path class="c1 s1" d="M392 480h56"/><path class="c0 s3" d="M448 480h56"/><path class="c2 s1" d="M504 480h56"/><path class="c1 s1" d="M560 480h56"/><path class="c2 s2" d="M616 480h56"/><path class="c3 s1" d="M672 480h56"/><path class="c3 s0" d="M728 480h56M784 480h56"/><path class="c2 s1" d="M840 480h56"/><path class="c0 s2" d="M896 480h56"/><path class="c2 s1" d="M952 480h56"/><path class="c1 s0" d="M1008 480h56"/><path class="c3 s2" d="M1064 480h56"/><path class="c1 s3" d="M1120 480h56"/><path class="c0 s2" d="M1176 480h56"/><path class="c3 s1" d="M1232 480h56"/><path class="c0 s2" d="M1288 480h56"/><path class="c1 s0" d="M1344 480h56"/><path class="c2 s3" d="M0 500h56"/><path class="c1 s3" d="M56 500h56"/><path class="c0 s3" d="M112 500h56"/><path class="c1 s3" d="M168 500h56"/><path class="c2 s1" d="M224 500h56"/><path class="c1 s1" d="M280 500h56"/><path class="c2 s3" d="M336 500h56"/><path class="c0 s2" d="M392 500h56"/><path class="c1 s3" d="M448 500h56"/><path class="c2 s3" d="M504 500h56"/><path class="c3 s1" d="M560 500h56"/><path class="c1 s1" d="M616 500h56"/><path class="c0 s1" d="M672 500h56M728 500h56"/><path class="c2 s0" d="M784 500h56M840 500h56"/><path class="c1 s1" d="M896 500h56"/><path class="c0 s2" d="M952 500h56"/><path class="c3 s3" d="M1008 500h56"/><path class="c1 s0" d="M1064 500h56"/><path class="c0 s3" d="M1120 500h56"/><path class="c3 s0" d="M1176 500h56"/><path class="c2 s0" d="M1232 500h56"/><path class="c2 s3" d="M1288 500h56"/><path class="c1 s3" d="M1344 500h56M0 520h56"/><path class="c0 s3" d="M56 520h56"/><path class="c2 s0" d="M112 520h56"/><path class="c2 s1" d="M168 520h56"/><path class="c0 s1" d="M224 520h56"/><path class="c1 s0" d="M280 520h56"/><path class="c0 s3" d="M336 520h56"/><path class="c2 s2" d="M392 520h56"/><path class="c2 s0" d="M448 520h56"/><path class="c2 s3" d="M504 520h56"/><path class="c0 s1" d="M560 520h56M616 520h56"/><path class="c1 s0" d="M672 520h56"/><path class="c0 s3" d="M728 520h56"/><path class="c2 s3" d="M784 520h56"/><path class="c2 s2" d="M840 520h56"/><path class="c2 s3" d="M896 520h56"/><path class="c3 s1" d="M952 520h56"/><path class="c1 s1" d="M1008 520h56"/><path class="c0 s0" d="M1064 520h56"/><path class="c3 s1" d="M1120 520h56"/><path class="c3 s3" d="M1176 520h56"/><path class="c0 s1" d="M1232 520h56"/><path class="c3 s0" d="M1288 520h56"/><path class="c0 s0" d="M1344 520h56"/><path class="c2 s0" d="M0 540h56"/><path class="c2 s1" d="M56 540h56"/><path class="c0 s2" d="M112 540h56"/><path class="c3 s3" d="M168 540h56"/><path class="c2 s2" d="M224 540h56"/><path class="c0 s2" d="M280 540h56"/><path class="c2 s2" d="M336 540h56"/><path class="c3 s3" d="M392 540h56"/><path class="c3 s0" d="M448 540h56"/><path class="c2 s2" d="M504 540h56"/><path class="c1 s1" d="M560 540h56"/><path class="c2 s2" d="M616 540h56"/><path class="c0 s2" d="M672 540h56"/><path class="c1 s2" d="M728 540h56"/><path class="c3 s0" d="M784 540h56"/><path class="c2 s0" d="M840 540h56"/><path class="c2 s1" d="M896 540h56"/><path class="c0 s3" d="M952 540h56"/><path class="c2 s0" d="M1008 540h56"/><path class="c3 s0" d="M1064 540h56"/><path class="c2 s3" d="M1120 540h56M1176 540h56"/><path class="c1 s0" d="M1232 540h56"/><path class="c2 s2" d="M1288 540h56"/><path class="c1 s2" d="M1344 540h56"/><path class="c2 s0" d="M0 560h56"/><path class="c0 s0" d="M56 560h56"/><path class="c2 s3" d="M112 560h56"/><path class="c0 s1" d="M168 560h56M224 560h56"/><path class="c3 s0" d="M280 560h56"/><path class="c1 s2" d="M336 560h56"/><path class="c3 s2" d="M392 560h56"/><path class="c3 s0" d="M448 560h56"/><path class="c2 s3" d="M504 560h56"/><path class="c1 s1" d="M560 560h56"/><path class="c0 s1" d="M616 560h56"/><path class="c2 s2" d="M672 560h56M728 560h56"/><path class="c3 s3" d="M784 560h56"/><path class="c2 s0" d="M840 560h56M896 560h56"/><path class="c1 s3" d="M952 560h56"/><path class="c2 s0" d="M1008 560h56"/><path class="c0 s0" d="M1064 560h56"/><path class="c3 s2" d="M1120 560h56"/><path class="c0 s0" d="M1176 560h56"/><path class="c1 s0" d="M1232 560h56"/><path class="c3 s2" d="M1288 560h56"/><path class="c0 s1" d="M1344 560h56"/><path class="c1 s1" d="M0 580h56"/><path class="c3 s2" d="M56 580h56M112 580h56"/><path class="c2 s0" d="M168 580h56"/><path class="c0 s3" d="M224 580h56"/><path class="c1 s1" d="M280 580h56"/><path class="c2 s1" d="M336 580h56"/><path class="c0 s0" d="M392 580h56"/><path class="c1 s3" d="M448 580h56"/><path class="c2 s0" d="M504 580h56"/><path class="c1 s2" d="M560 580h56M616 580h56"/><path class="c0 s0" d="M672 580h56"/><path class="c1 s3" d="M728 580h56"/><path class="c0 s3" d="M784 580h56"/><path class="c1 s0" d="M840 580h56"/><path class="c0 s2" d="M896 580h56"/><path class="c1 s2" d="M952 580h56M1008 580h56"/><path class="c2 s0" d="M1064 580h56"/><path class="c3 s1" d="M1120 580h56"/><path class="c0 s3" d="M1176 580h56"/><path class="c2 s0" d="M1232 580h56"/><path class="c0 s3" d="M1288 580h56"/><path class="c1 s3" d="M1344 580h56"/></svg>